<svg width="24" height="24" viewBox="0 0 24 24" fill="none" xmlns="http://www.w3.org/2000/svg">
<g clip-path="url(#clip0_2014_1387)">
<rect width="24" height="24" rx="5" fill="white"/>
<path fill-rule="evenodd" clip-rule="evenodd" d="M17.8097 2.15382C16.7207 1.88133 15.5743 1.94987 14.5255 2.35018C13.4767 2.75048 12.5761 3.46324 11.9456 4.39204C11.322 5.31064 10.9923 6.39674 10.9997 7.5064C9.74238 7.4119 8.51244 7.0719 7.38058 6.5022C5.95762 5.78597 4.73388 4.72895 3.81834 3.42527L2.99998 3.99998L2.10555 3.55277C2.0976 3.56867 2.09011 3.58472 2.08306 3.6009L2.08011 3.60765L2.06854 3.63458C2.05908 3.65683 2.04619 3.68764 2.03042 3.72657C1.99889 3.8044 1.95575 3.91487 1.90526 4.05452C1.8044 4.33349 1.67356 4.73076 1.54746 5.21835C1.29646 6.18888 1.05769 7.54227 1.12601 9.04539C1.19454 10.5529 1.57341 12.2316 2.57704 13.8163C3.3294 15.0042 4.41157 16.1054 5.91472 17.033C4.39635 17.7325 2.72654 18.0679 1.03973 18.0008C0.577004 17.9824 0.162178 18.2841 0.0371299 18.73C-0.0879187 19.1758 0.109527 19.6492 0.514338 19.8741C5.29085 22.5278 10.6509 22.5525 14.8448 20.3202C19.0631 18.075 22 13.5999 22 7.49998L22 7.49668C21.9994 7.33442 21.9917 7.17236 21.9769 7.01096C22.9424 5.93955 23.629 4.64313 23.9716 3.2366L23 2.99999L22.4236 2.18282C21.7151 2.68256 20.9448 3.08657 20.1326 3.38509C19.4722 2.79454 18.6758 2.37051 17.8097 2.15382ZM3.12395 8.95458C3.07425 7.86122 3.22094 6.84496 3.40463 6.04359C4.29723 6.95247 5.33583 7.71206 6.4814 8.28866C8.19897 9.15317 10.1037 9.57949 12.0259 9.52965C12.5679 9.51559 13 9.07217 13 8.52998V7.52998L12.9999 7.51658C12.9903 6.80375 13.1999 6.10519 13.6003 5.51536C14.0007 4.92553 14.5726 4.47291 15.2387 4.2187C15.9047 3.96449 16.6327 3.92096 17.3243 4.094C18.0159 4.26705 18.6376 4.64831 19.1054 5.18622C19.3635 5.48302 19.7717 5.60093 20.1483 5.48752C20.3799 5.41777 20.6092 5.34104 20.8357 5.25749C20.6469 5.50415 20.4406 5.73829 20.2178 5.95798C19.9801 6.19236 19.8751 6.52987 19.9378 6.85774C19.9783 7.06999 19.9992 7.28555 20 7.50165C19.9995 12.9008 17.4365 16.6751 13.9051 18.5547C11.307 19.9376 8.13025 20.3233 4.96008 19.5157C6.23418 19.1488 7.45067 18.5815 8.56161 17.8274C8.86203 17.6234 9.02831 17.2727 8.99602 16.911C8.96372 16.5494 8.73792 16.2336 8.40612 16.0862C6.31602 15.1572 5.04027 13.9676 4.26667 12.7462C3.48906 11.5184 3.18043 10.1971 3.12395 8.95458Z" fill="#2D3648"/>
</g>
<defs>
<clipPath id="clip0_2014_1387">
<rect width="24" height="24" rx="5" fill="white"/>
</clipPath>
</defs>
</svg>
